<svg width="0" height="0" class="hidden">
  <symbol xmlns="http://www.w3.org/2000/svg" fill="none" stroke="#FEF8EC" stroke-width="0.5" stroke-linecap="round" stroke-linejoin="round" viewBox="0 0 24 24" id="cpu">
    <rect x="4" y="4" width="16" height="16" rx="2" ry="2"></rect>
    <rect x="9" y="9" width="6" height="6"></rect>
    <line x1="9" y1="1" x2="9" y2="4"></line>
    <line x1="15" y1="1" x2="15" y2="4"></line>
    <line x1="9" y1="20" x2="9" y2="23"></line>
    <line x1="15" y1="20" x2="15" y2="23"></line>
    <line x1="20" y1="9" x2="23" y2="9"></line>
    <line x1="20" y1="14" x2="23" y2="14"></line>
    <line x1="1" y1="9" x2="4" y2="9"></line>
    <line x1="1" y1="14" x2="4" y2="14"></line>
  </symbol>
  <symbol xmlns="http://www.w3.org/2000/svg" fill="none" stroke="#FEF8EC" stroke-width="0.5" stroke-linecap="round" stroke-linejoin="round" viewBox="0 0 24 24" id="credit-card">
    <rect x="1" y="4" width="22" height="16" rx="2" ry="2"></rect>
    <line x1="1" y1="10" x2="23" y2="10"></line>
  </symbol>
  <symbol xmlns="http://www.w3.org/2000/svg" fill="none" stroke="#FEF8EC" stroke-width="0.5" stroke-linecap="round" stroke-linejoin="round" viewBox="0 0 24 24" id="file-text">
    <path d="M14 2H6a2 2 0 0 0-2 2v16a2 2 0 0 0 2 2h12a2 2 0 0 0 2-2V8z"></path>
    <polyline points="14 2 14 8 20 8"></polyline>
    <line x1="16" y1="13" x2="8" y2="13"></line>
    <line x1="16" y1="17" x2="8" y2="17"></line>
    <polyline points="10 9 9 9 8 9"></polyline>
  </symbol>
  <symbol xmlns="http://www.w3.org/2000/svg" fill="none" stroke="#FEF8EC" stroke-width="0.5" stroke-linecap="round" stroke-linejoin="round" viewBox="0 0 24 24" id="pie-chart">
    <path d="M21.21 15.89A10 10 0 1 1 8 2.83"></path>
    <path d="M22 12A10 10 0 0 0 12 2v10z"></path>
  </symbol>
  <symbol xmlns="http://www.w3.org/2000/svg" fill="none" stroke="#FEF8EC" stroke-width="0.5" stroke-linecap="round" stroke-linejoin="round" viewBox="0 0 24 24" id="settings">
    <circle cx="12" cy="12" r="3"></circle>
    <path d="M19.4 15a1.65 1.65 0 0 0 .33 1.82l.06.06a2 2 0 0 1 0 2.83 2 2 0 0 1-2.83 0l-.06-.06a1.65 1.65 0 0 0-1.82-.33 1.65 1.65 0 0 0-1 1.51V21a2 2 0 0 1-2 2 2 2 0 0 1-2-2v-.09A1.65 1.65 0 0 0 9 19.4a1.65 1.65 0 0 0-1.82.33l-.06.06a2 2 0 0 1-2.83 0 2 2 0 0 1 0-2.83l.06-.06a1.65 1.65 0 0 0 .33-1.82 1.65 1.65 0 0 0-1.51-1H3a2 2 0 0 1-2-2 2 2 0 0 1 2-2h.09A1.65 1.65 0 0 0 4.6 9a1.65 1.65 0 0 0-.33-1.82l-.06-.06a2 2 0 0 1 0-2.83 2 2 0 0 1 2.83 0l.06.06a1.65 1.65 0 0 0 1.82.33H9a1.65 1.65 0 0 0 1-1.51V3a2 2 0 0 1 2-2 2 2 0 0 1 2 2v.09a1.65 1.65 0 0 0 1 1.51 1.65 1.65 0 0 0 1.82-.33l.06-.06a2 2 0 0 1 2.83 0 2 2 0 0 1 0 2.83l-.06.06a1.65 1.65 0 0 0-.33 1.82V9a1.65 1.65 0 0 0 1.51 1H21a2 2 0 0 1 2 2 2 2 0 0 1-2 2h-.09a1.65 1.65 0 0 0-1.51 1z"></path>
  </symbol>
  <symbol xmlns="http://www.w3.org/2000/svg" fill="none" stroke="#FEF8EC" stroke-width="0.5" stroke-linecap="round" stroke-linejoin="round" viewBox="0 0 24 24" id="shopping-cart">
    <circle cx="9" cy="21" r="1"></circle>
    <circle cx="20" cy="21" r="1"></circle>
    <path d="M1 1h4l2.68 13.39a2 2 0 0 0 2 1.61h9.72a2 2 0 0 0 2-1.61L23 6H6"></path>
  </symbol>
  <symbol xmlns="http://www.w3.org/2000/svg" fill="none" stroke="#FEF8EC" stroke-width="0.5" stroke-linecap="round" stroke-linejoin="round" viewBox="0 0 24 24" id="tag">
    <path d="M20.59 13.41l-7.17 7.17a2 2 0 0 1-2.83 0L2 12V2h10l8.59 8.59a2 2 0 0 1 0 2.82z"></path>
    <line x1="7" y1="7" x2="7.01" y2="7"></line>
  </symbol>
  <symbol xmlns="http://www.w3.org/2000/svg" fill="none" stroke="#FEF8EC" stroke-width="0.5" stroke-linecap="round" stroke-linejoin="round" viewBox="0 0 24 24" id="user">
    <path d="M20 21v-2a4 4 0 0 0-4-4H8a4 4 0 0 0-4 4v2"></path>
    <circle cx="12" cy="7" r="4"></circle>
  </symbol>
  <symbol xmlns="http://www.w3.org/2000/svg" fill="none" stroke="#FEF8EC" stroke-width="0.5" stroke-linecap="round" stroke-linejoin="round" viewBox="0 0 24 24" id="users">
    <path d="M17 21v-2a4 4 0 0 0-4-4H5a4 4 0 0 0-4 4v2"></path>
    <circle cx="9" cy="7" r="4"></circle>
    <path d="M23 21v-2a4 4 0 0 0-3-3.87"></path>
    <path d="M16 3.13a4 4 0 0 1 0 7.75"></path>
  </symbol>
  <symbol xmlns="http://www.w3.org/2000/svg" fill="none" stroke="#FEF8EC" stroke-width="0.5" stroke-linecap="round" stroke-linejoin="round" viewBox="0 0 24 24" id="box">
    <path d="M21 16V8a2 2 0 0 0-1-1.73l-7-4a2 2 0 0 0-2 0l-7 4A2 2 0 0 0 3 8v8a2 2 0 0 0 1 1.73l7 4a2 2 0 0 0 2 0l7-4A2 2 0 0 0 21 16z"></path>
    <polyline points="3.27 6.96 12 12.01 20.73 6.96"></polyline>
    <line x1="12" y1="22.08" x2="12" y2="12"></line>
  </symbol>
  <symbol xmlns="http://www.w3.org/2000/svg" fill="none" stroke="#FEF8EC" stroke-width="1" stroke-linecap="round" stroke-linejoin="round" viewBox="0 0 24 24" id="log-out">
    <path d="M9 21H5a2 2 0 0 1-2-2V5a2 2 0 0 1 2-2h4"></path>
    <polyline points="16 17 21 12 16 7"></polyline>
    <line x1="21" y1="12" x2="9" y2="12"></line>
  </symbol>
  <symbol xmlns="http://www.w3.org/2000/svg" fill="none" stroke="#FEF8EC" stroke-width="1" stroke-linecap="round" stroke-linejoin="round" viewBox="0 0 24 24" id="user-check">
    <path d="M16 21v-2a4 4 0 0 0-4-4H5a4 4 0 0 0-4 4v2"></path>
    <circle cx="8.5" cy="7" r="4"></circle>
    <polyline points="17 11 19 13 23 9"></polyline>
  </symbol>
</svg>
